<svg xmlns="http://www.w3.org/2000/svg" viewBox="0 0 512 512" fill="none">
  <defs>
    <linearGradient id="g" x1="64" y1="32" x2="448" y2="480" gradientUnits="userSpaceOnUse">
      <stop offset="0%" stop-color="#818CF8"/>
      <stop offset="50%" stop-color="#6366F1"/>
      <stop offset="100%" stop-color="#0EA5E9"/>
    </linearGradient>
  </defs>
  <!-- Shield body -->
  <path d="M256 36L64 124v160c0 112 80 196 192 220 112-24 192-108 192-220V124L256 36z" fill="url(#g)"/>
  <!-- Subtle inner highlight -->
  <path d="M256 64L92 140v144c0 100 68 172 164 196 96-24 164-96 164-196V140L256 64z" fill="none" stroke="#fff" stroke-width="2" opacity="0.1"/>
  <!-- C letter — clean, geometric, centered -->
  <path d="
    M316 192c0 0-12-24-40-24H236c-22 0-40 18-40 40v96c0 22 18 40 40 40h40c28 0 40-24 40-24
    l0 0h-48c-8 0-16-8-16-16v-96c0-8 8-16 16-16h48z
  " fill="#fff"/>
</svg>
