<svg xmlns="http://www.w3.org/2000/svg" viewBox="0 0 32 32" fill="none">
  <defs>
    <linearGradient id="g" x1="4" y1="2" x2="28" y2="30" gradientUnits="userSpaceOnUse">
      <stop offset="0%" stop-color="#818CF8"/>
      <stop offset="50%" stop-color="#6366F1"/>
      <stop offset="100%" stop-color="#0EA5E9"/>
    </linearGradient>
  </defs>
  <path d="M16 2L4 8v10c0 7 5 12 12 14 7-2 12-7 12-14V8L16 2z" fill="url(#g)"/>
  <path d="M20 12c0 0-1-2-3-2h-3c-1.5 0-3 1.5-3 3v6c0 1.5 1.5 3 3 3h3c2 0 3-2 3-2h-4c-.5 0-1-.5-1-1v-6c0-.5.5-1 1-1h4z" fill="#fff"/>
</svg>
