<svg xmlns="http://www.w3.org/2000/svg" width="48" height="48" viewBox="0 0 24 24" fill="none" stroke="#818CF8" stroke-width="2" stroke-linecap="round" stroke-linejoin="round"><line x1="6" x2="10" y1="11" y2="11"/><line x1="8" x2="8" y1="9" y2="13"/><line x1="15" x2="15.01" y1="12" y2="12"/><line x1="18" x2="18.01" y1="10" y2="10"/><path d="M17.32 5H6.68a4 4 0 0 0-3.978 3.59c-.006.052-.01.101-.017.152C2.604 9.416 2 14.456 2 16a3 3 0 0 0 3 3c1.803 0 2.339-2.265 3.137-3.5.798-1.13 1.386-1.5 2.363-1.5h3c1.032 0 1.62.37 2.363 1.5.798 1.235 1.334 3.5 3.137 3.5a3 3 0 0 0 3-3c0-1.545-.604-6.584-.685-7.258-.007-.05-.011-.1-.017-.151A4 4 0 0 0 17.32 5z"/></svg>
